<svg width="83" height="36" viewBox="0 0 83 36" fill="none" xmlns="http://www.w3.org/2000/svg">
<path d="M9.15998e-06 27.372C-0.0066211 31.8165 3.58697 35.4256 8.03367 35.4344H13.2649C13.5103 35.4344 13.707 35.2355 13.707 34.9902V31.3944C13.7025 31.1491 13.508 30.9501 13.2649 30.9457H9.20944C6.86453 30.9457 4.47321 29.0384 4.47763 26.6957L4.51521 8.93327C4.51521 8.68574 4.3163 8.48462 4.06656 8.48462H0.497279C0.251959 8.48462 0.0552613 8.68353 0.0552613 8.92664L9.15998e-06 27.372Z" fill="white"/>
<path d="M81.6207 8.6526H78.0359C77.7906 8.6526 77.5939 8.85151 77.5939 9.09683V9.10125L77.5365 35.1405C77.5342 35.3858 77.7309 35.5869 77.9785 35.5913H77.9829H81.5677C81.813 35.5936 82.0141 35.3969 82.0163 35.1515V35.1471L82.0716 9.10567C82.0782 8.86256 81.8903 8.65923 81.6494 8.65039H81.6207V8.6526Z" fill="white"/>
<path d="M73.0832 17.6147H69.4984C69.2531 17.6147 69.0542 17.8136 69.0542 18.0567V18.5562C64.6251 15.8201 58.817 17.1948 56.081 21.6238C53.3493 26.0528 54.7218 31.8587 59.1508 34.5948C62.1742 36.4623 65.991 36.4689 69.0232 34.6125V35.1119C69.0166 35.3551 69.2089 35.554 69.4498 35.5606H69.4652H73.05C73.2997 35.5606 73.4986 35.3617 73.4986 35.1119L73.534 18.0501C73.5318 17.807 73.3307 17.6103 73.0854 17.6147H73.0832ZM64.108 31.5117C61.3785 31.5073 59.1684 29.2928 59.1707 26.5655C59.1729 23.8361 61.3896 21.626 64.1168 21.6282C66.8463 21.6304 69.0564 23.8449 69.0542 26.5744V26.5788C69.0453 29.3083 66.8264 31.5161 64.0969 31.5117H64.108Z" fill="white"/>
<path d="M44.7233 21.6038C46.4538 21.4889 48.1202 22.2911 49.1059 23.7189C49.2363 23.9156 49.4971 23.9774 49.6982 23.8581L52.81 22.0679C53.0288 21.9397 53.1017 21.6591 52.9736 21.4403C52.9736 21.4381 52.9714 21.4381 52.9691 21.4358C50.1447 17.0643 44.31 15.8134 39.9385 18.6401C35.5669 21.469 34.3138 27.3036 37.1427 31.673C39.9694 36.0423 45.804 37.2954 50.1756 34.4687C51.2939 33.7438 52.2464 32.7913 52.9691 31.673C53.1084 31.4696 53.0553 31.1956 52.8542 31.0564C52.841 31.0453 52.8277 31.0409 52.8166 31.0342L49.7159 29.233C49.5104 29.1137 49.2474 29.1734 49.117 29.3701C47.5434 31.5956 44.4669 32.1238 42.2436 30.548C40.018 28.9744 39.492 25.8958 41.0678 23.6725C41.9231 22.4657 43.2735 21.7055 44.752 21.6016H44.7233V21.6038Z" fill="white"/>
<path d="M27.6172 17.882C32.3734 20.0015 34.5083 25.5731 32.3888 30.327C30.2716 35.0809 24.6977 37.2181 19.9438 35.0986C15.1899 32.9813 13.055 27.4075 15.1722 22.6536C15.1767 22.6492 15.1789 22.6403 15.1833 22.6337C17.3293 17.9152 22.8722 15.7979 27.6172 17.882ZM21.7561 31.0033C24.2447 32.115 27.1664 30.9989 28.2759 28.5103C29.3897 26.0196 28.2714 23.1 25.7807 21.9884C23.2921 20.8767 20.3748 21.9928 19.2609 24.4813C18.147 26.9699 19.2631 29.8916 21.7517 31.0033H21.7561Z" fill="white"/>
<path d="M31.1003 10.1026C28.9477 9.13234 26.6227 8.59971 24.2645 8.53341C24.0214 8.52236 23.8137 8.71684 23.807 8.95995V8.97984V12.5712C23.8048 12.8121 23.9927 13.011 24.238 13.0199C27.7476 13.1436 31.076 14.6332 33.5071 17.1748C33.6773 17.3406 33.9535 17.3406 34.1259 17.1748L36.7979 14.7703C36.9725 14.5979 36.9769 14.3128 36.8045 14.1338L36.7979 14.1271C35.1757 12.4298 33.2419 11.064 31.1003 10.1026Z" fill="white"/>
<path d="M34.5768 2.31412C31.3346 0.853257 27.8316 0.0642553 24.28 0.00016283C24.0347 -0.00646743 23.8313 0.190231 23.8247 0.43555V0.448811V4.03799C23.8291 4.28331 24.0214 4.48001 24.2667 4.48885C30.1765 4.6325 35.7857 7.14979 39.8235 11.4683C39.9871 11.6473 40.2655 11.6628 40.4446 11.497L43.1232 9.10572C43.3022 8.9488 43.3243 8.67475 43.1674 8.49353C43.163 8.48911 43.1585 8.48248 43.1519 8.47806C40.7429 5.86131 37.8256 3.76394 34.5768 2.31412Z" fill="white"/>
</svg>
