<svg width="64" height="64" viewBox="0 0 64 64" fill="none" xmlns="http://www.w3.org/2000/svg">
<path d="M30.1019 31.9705C37.5994 35.308 40.9819 44.123 37.6444 51.618C34.3069 59.113 25.4919 62.498 17.9969 59.1605C10.4994 55.823 7.11436 47.008 10.4519 39.513C13.7894 32.018 22.6044 28.633 30.1019 31.9705ZM20.8769 52.688C24.8044 54.4355 29.4194 52.663 31.1694 48.738C32.9169 44.8105 31.1444 40.1955 27.2194 38.4455C23.2919 36.698 18.6769 38.4705 16.9269 42.3955C15.1769 46.3205 16.9519 50.938 20.8769 52.688Z" fill="#EE284A"/>
<path d="M35.5769 19.6704C32.1294 18.1354 28.4944 17.3129 24.7619 17.2229C24.3694 17.2129 24.0469 17.5354 24.0469 17.9304L24.0494 23.6079C24.0494 23.9854 24.3469 24.3004 24.7244 24.3129C27.4719 24.3979 30.1494 25.0129 32.6944 26.1479C35.2394 27.2804 37.4894 28.8579 39.3919 30.8429C39.6544 31.1154 40.0869 31.1254 40.3669 30.8729L44.5869 27.0779C44.8844 26.8104 44.8994 26.3529 44.6244 26.0629C42.0594 23.3504 39.0194 21.2029 35.5769 19.6704Z" fill="#EE284A"/>
<path d="M41.0544 7.36763C35.8644 5.05763 30.3869 3.84263 24.7594 3.75013C24.3669 3.74263 24.0469 4.06513 24.0469 4.45763L24.0494 10.1326C24.0494 10.5201 24.3619 10.8301 24.7469 10.8376C29.3794 10.9276 33.8919 11.9376 38.1694 13.8426C42.4494 15.7476 46.2194 18.4251 49.3844 21.8076C49.6494 22.0901 50.0869 22.1151 50.3769 21.8551L54.5969 18.0601C54.8894 17.7976 54.9144 17.3426 54.6469 17.0551C50.8144 12.9376 46.2444 9.68013 41.0544 7.36763Z" fill="#EE284A"/>
</svg>
